nColumns=19
nRows=47
DataType=double
version=3
OpenSimVersion=4.1
endheader
time	ground_force_1_vx	ground_force_1_vy	ground_force_1_vz	ground_force_1_px	ground_force_1_py	ground_force_1_pz	ground_force_1_mx	ground_force_1_my	ground_force_1_mz	ground_force_2_vx	ground_force_2_vy	ground_force_2_vz	ground_force_2_px	ground_force_2_py	ground_force_2_pz	ground_force_2_mx	ground_force_2_my	ground_force_2_mz
2.44	-4.09727	3.2551	-0.11678	0.982177	0	-0.411209	0	-1.40278e-06	0	81.7065	721.655	27.8406	0.51154	0	-0.577542	0	-3.5044	0
2.445	-6.56995	6.12047	-0.302456	0.984593	0	-0.411103	0	-9.30182e-06	0	85.7488	722.2	24.6341	0.512844	0	-0.576438	0	-3.02988	0
2.45	-10.4328	11.4007	-1.07296	0.985796	0	-0.410949	0	-7.71579e-05	0	89.8411	721.299	23.9636	0.514224	0	-0.575407	0	-2.68091	0
2.455	-3.57071	20.3476	-1.93624	0.985041	0	-0.410943	0	-0.000535941	0	94.075	718.271	24.7072	0.515658	0	-0.574529	0	-2.52236	0
2.46	7.93081	32.6967	-2.42811	0.985138	0	-0.41094	0	-0.00196184	0	97.9332	712.573	24.2432	0.51719	0	-0.573678	0	-2.43015	0
2.465	15.8569	51.7459	-2.69636	0.98584	0	-0.410841	0	-0.0068966	0	101.728	704.472	23.6829	0.518858	0	-0.57273	0	-2.30823	0
2.47	19.3049	90.5863	-2.46976	0.986682	0	-0.410633	0	-0.0235884	0	105.656	693.473	23.1064	0.520731	0	-0.571541	0	-2.04876	0
2.475	19.7636	148.36	-1.10496	0.987814	0	-0.410272	0	-0.0778161	0	109.242	679.085	21.7174	0.522843	0	-0.570058	0	-1.58263	0
2.48	19.3714	208.825	1.21391	0.989645	0	-0.409695	0	-0.23131	0	112.515	661.19	20.0651	0.525185	0	-0.568354	0	-0.994752	0
2.485	18.1212	259.862	3.97475	0.992496	0	-0.409022	0	-0.601096	0	115.39	639.389	18.3427	0.527787	0	-0.566443	0	-0.401935	0
2.49	13.2739	298.893	6.82676	0.996802	0	-0.408693	0	-1.40526	0	117.41	612.576	16.3853	0.530708	0	-0.564317	0	0.0876079	0
2.495	5.71037	330.438	10.5032	1.00371	0	-0.409047	0	-2.85238	0	118.532	578.566	14.0172	0.534003	0	-0.56207	0	0.408938	0
2.5	-3.82478	359.706	13.5006	1.01371	0	-0.40976	0	-4.60867	0	119.396	536.228	11.9014	0.537722	0	-0.559816	0	0.570828	0
2.505	-14.5813	384.572	13.8051	1.02497	0	-0.410443	0	-6.02464	0	119.207	487.159	9.68956	0.541852	0	-0.557739	0	0.625201	0
2.51	-24.6926	406.023	13.38	1.03705	0	-0.411753	0	-7.2201	0	115.707	432.213	7.11993	0.546449	0	-0.556025	0	0.624278	0
2.515	-35.0514	425.699	11.6115	1.04867	0	-0.413802	0	-7.85498	0	109.482	369.318	5.10349	0.551766	0	-0.554856	0	0.617258	0
2.52	-43.6248	439.064	7.90544	1.05794	0	-0.4156	0	-7.81024	0	103.65	300.209	2.58135	0.558852	0	-0.553313	0	0.478007	0
2.525	-50.63	447.769	3.84543	1.06526	0	-0.41685	0	-7.46229	0	96.4431	239.262	0.611932	0.567434	0	-0.550429	0	0.22642	0
2.53	-56.9767	454.118	-0.570674	1.0706	0	-0.417439	0	-6.80805	0	86.5479	201.333	-2.24586	0.572904	0	-0.544693	0	0.0508536	0
2.535	-61.771	459.803	-5.34113	1.07412	0	-0.417348	0	-5.98316	0	78.4706	182.173	-3.22198	0.574253	0	-0.542514	0	-0.00279377	0
2.54	-65.8949	465.29	-9.52531	1.07658	0	-0.416791	0	-5.20254	0	73.1679	172.339	-3.80308	0.574764	0	-0.542512	0	-0.000172979	0
2.545	-69.4941	470.968	-13.3921	1.07874	0	-0.416007	0	-4.57198	0	64.6885	169.022	-4.89993	0.575271	0	-0.542429	0	-7.98261e-05	0
2.55	-72.2361	477.531	-17.0406	1.08076	0	-0.415079	0	-4.09039	0	54.1303	168.243	-5.07858	0.575832	0	-0.54232	0	-8.97172e-05	0
2.555	-74.0984	486.421	-20.3789	1.08266	0	-0.414018	0	-3.76709	0	44.1691	165.767	-4.65832	0.57654	0	-0.542208	0	-6.60345e-05	0
2.56	-75.139	499.745	-23.601	1.08437	0	-0.412771	0	-3.5403	0	36.0847	157.581	-4.00209	0.577424	0	-0.542099	0	-1.00178e-05	0
2.565	-75.4097	517.545	-26.8877	1.08594	0	-0.411375	0	-3.22145	0	29.1555	141.488	-3.66935	0.578466	0	-0.541998	0	-1.67319e-07	0
2.57	-74.9532	536.797	-30.0342	1.08753	0	-0.409973	0	-2.85848	0	22.4089	117.744	-3.00643	0.57965	0	-0.541882	0	-3.04038e-10	0
2.575	-73.9868	555.756	-32.7904	1.08917	0	-0.408647	0	-2.51554	0	16.0205	89.0135	-2.56661	0.580979	0	-0.541755	0	-1.40776e-13	0
2.58	-72.5711	575.519	-35.4771	1.09066	0	-0.407363	0	-2.0493	0	8.50737	59.7741	-2.85022	0.582386	0	-0.541626	0	-1.77636e-15	0
2.585	-71.0215	595.717	-37.7033	1.09185	0	-0.406089	0	-1.39478	0	-0.55497	33.2196	-4.20876	0.583763	0	-0.541533	0	0	0
2.59	-69.6038	614.692	-39.2879	1.09273	0	-0.404833	0	-0.622442	0	-6.77035	12.1439	-3.65637	0.58521	0	-0.541351	0	8.88178e-16	0
2.595	-68.1055	631.972	-40.7188	1.09331	0	-0.403586	0	0.145857	0	0.233519	-0.238777	0.0602255	0.588548	0	-0.54056	0	-2.08167e-17	0
2.6	-66.88	645.955	-41.5868	1.09381	0	-0.402421	0	0.74332	0	0.112702	-0.0980213	0.0181641	0.593974	0	-0.539734	0	-8.67362e-18	0
2.605	-65.8924	655.532	-41.8852	1.09449	0	-0.401429	0	1.11599	0	0.127402	-0.0999018	0.0156841	0.600882	0	-0.538967	0	1.04083e-17	0
2.61	-64.8558	662.503	-42.136	1.09536	0	-0.400588	0	1.39142	0	-0.0642369	0.0456003	-0.00673203	0.609098	0	-0.538186	0	-1.82146e-17	0
2.615	-63.8317	667.994	-42.221	1.09633	0	-0.399845	0	1.63863	0	-0.0721495	0.0464612	-0.00656762	0.61878	0	-0.537367	0	-2.09034e-16	0
2.62	-62.7455	671.682	-42.2353	1.0974	0	-0.399168	0	1.83683	0	-0.204704	0.121293	-0.0165729	0.62985	0	-0.536517	0	-3.48853e-15	0
2.625	-61.5198	673.695	-42.3397	1.09863	0	-0.398549	0	2.02261	0	-0.316896	0.174892	-0.0234057	0.642124	0	-0.535639	0	-9.88289e-14	0
2.63	-60.1906	674.431	-42.4601	1.10004	0	-0.39799	0	2.23345	0	-0.29895	0.154432	-0.0204487	0.655535	0	-0.534735	0	-2.18053e-12	0
2.635	-58.8073	673.977	-42.5783	1.10165	0	-0.397484	0	2.45813	0	-0.25309	0.123036	-0.0161454	0.67002	0	-0.533811	0	7.25325e-12	0
2.64	-57.3918	672.271	-42.65	1.10344	0	-0.397033	0	2.67626	0	-0.211689	0.0974959	-0.0127604	0.685452	0	-0.532864	0	2.5118e-11	0
2.645	-55.9844	669.324	-42.6415	1.10544	0	-0.396637	0	2.87541	0	-0.180661	0.0793018	-0.010438	0.701706	0	-0.531894	0	1.85846e-11	0
2.65	-54.5978	665.206	-42.526	1.10763	0	-0.396297	0	3.0534	0	-0.159084	0.0668728	-0.00889527	0.718688	0	-0.530899	0	1.16859e-11	0
2.655	-53.2934	659.998	-42.3439	1.11001	0	-0.396011	0	3.20541	0	-0.146996	0.0594654	-0.00803383	0.736296	0	-0.529879	0	7.00954e-12	0
2.66	-52.0496	653.805	-42.1191	1.11255	0	-0.395778	0	3.32591	0	-0.142946	0.055895	-0.00770618	0.75444	0	-0.528832	0	3.82516e-12	0
2.665	-50.8862	646.743	-41.903	1.11524	0	-0.395598	0	3.4147	0	-0.146579	0.0556243	-0.00784734	0.77304	0	-0.527758	0	1.39932e-12	0
2.67	-49.8509	638.969	-41.722	1.11806	0	-0.395471	0	3.47537	0	-0.15802	0.0584042	-0.00843454	0.792035	0	-0.52666	0	-9.17272e-13	0
